<svg width="94" height="25" viewBox="0 0 94 25" fill="none" xmlns="http://www.w3.org/2000/svg">
<path d="M12.5 25C5.60746 25 0 19.3943 0 12.5C0 5.60746 5.60746 0 12.5 0C19.3925 0 25 5.60746 25 12.5C25.0017 19.3943 19.3943 25 12.5 25ZM12.5 3.15539C7.34753 3.15539 3.15365 7.34753 3.15365 12.5017C3.15365 17.6559 7.34579 21.8463 12.5 21.8463C17.6542 21.8463 21.8463 17.6542 21.8463 12.5017C21.8463 7.34926 17.6542 3.15539 12.5 3.15539Z" fill="black"/>
<path fill-rule="evenodd" clip-rule="evenodd" d="M75 1H71.0494L58.4229 22.3241L45.7806 1H41.8318L47.5168 10.6129L40.5894 22.3241L27.975 1H24L37.6037 24H43.5628L49.4991 13.9648L55.4355 24H61.3945L75 1Z" fill="black"/>
<path fill-rule="evenodd" clip-rule="evenodd" d="M78.7962 3.90225L80.4991 1L82.2021 3.90225L92.2953 21.0977L94 24H90.6218L88.2508 19.9583L88.23 19.9702L80.5009 6.8028L72.7787 19.96L72.7752 19.9583L70.4042 24H67L68.7047 21.0977L78.7962 3.90225Z" fill="black"/>
</svg>
