<svg width="2428" height="2428" viewBox="0 0 2428 2428" fill="none" xmlns="http://www.w3.org/2000/svg">
<rect width="2428" height="2428" rx="1214" fill="black"/>
<g clip-path="url(#clip0_3_19)">
<path d="M419.671 1655C257.188 1655 125 1457.01 125 1213.5C125 970.055 257.188 772 419.671 772C582.153 772 714.341 970.055 714.341 1213.5C714.382 1457.01 582.194 1655 419.671 1655ZM419.671 883.448C298.209 883.448 199.343 1031.51 199.343 1213.56C199.343 1395.61 298.168 1543.61 419.671 1543.61C541.174 1543.61 639.998 1395.55 639.998 1213.56C639.998 1031.58 541.174 883.448 419.671 883.448Z" fill="white"/>
<path fill-rule="evenodd" clip-rule="evenodd" d="M1880.21 791.196H1787.92L1492.93 1556.46L1197.57 791.196H1105.31L1238.13 1136.18L1076.29 1556.46L781.585 791.196H688.718L1006.54 1616.61H1145.76L1284.44 1256.47L1423.14 1616.61H1562.35L1880.21 791.196Z" fill="white"/>
<path fill-rule="evenodd" clip-rule="evenodd" d="M1942.29 895.35L1982.68 791.196L2023.09 895.35L2262.55 1512.45L2303 1616.61H2222.85L2166.59 1471.56L2166.11 1471.99L1982.73 999.443L1799.51 1471.62L1799.43 1471.56L1743.18 1616.61H1662.41L1702.86 1512.45L1942.29 895.35Z" fill="white"/>
</g>
<defs>
<clipPath id="clip0_3_19">
<rect width="2178" height="883" fill="white" transform="translate(125 772)"/>
</clipPath>
</defs>
</svg>
