<svg xmlns="http://www.w3.org/2000/svg" width="470" height="206" viewBox="0 0 170 46" fill="none">
    <path d="M23 46C10.3177 46 0 35.6855 0 23C0 10.3177 10.3177 0 23 0C35.6823 0 46 10.3177 46 23C46.0032 35.6855 35.6855 46 23 46ZM23 5.80592C13.5195 5.80592 5.80272 13.5194 5.80272 23.0032C5.80272 32.4869 13.5163 40.1973 23 40.1973C32.4837 40.1973 40.1973 32.4837 40.1973 23.0032C40.1973 13.5226 32.4837 5.80592 23 5.80592Z" fill="black"/>
    <path fill-rule="evenodd" clip-rule="evenodd" d="M137 1H129.796L106.771 40.8667L83.7176 1H76.5167L86.8837 18.9719L74.2512 40.8667L51.2486 1H44L68.8068 44H79.6733L90.4984 25.2385L101.324 44H112.19L137 1Z" fill="black"/>
    <path fill-rule="evenodd" clip-rule="evenodd" d="M141.845 6.42595L144.998 1L148.152 6.42595L166.843 38.5741L170 44H163.744L159.353 36.4438L159.315 36.4661L145.002 11.8487L130.701 36.447L130.695 36.4438L126.304 44H120L123.157 38.5741L141.845 6.42595Z" fill="black"/>
</svg>