<svg xmlns="http://www.w3.org/2000/svg" width="120" height="118" viewBox="0 0 120 118" fill="none">
    <g clip-path="url(#clip0_127_1936)">
        <path d="M8.91594 93.745C-0.318059 78.153 -2.16406 57.5689 2.38194 39.5779C7.15494 20.6899 19.0449 8.45095 35.1619 3.31995C46.6089 -0.324049 58.7159 -0.669049 70.4559 0.844951C84.6829 2.67995 99.5699 7.69395 108.892 20.408C118.922 34.087 120.963 55.118 119.639 72.462C118.466 87.821 112.198 99.951 100.408 106.956C89.7189 113.307 77.4879 115.689 65.6929 117.287C49.5119 119.479 31.4979 116.951 18.0929 105.006C14.4717 101.748 11.3761 97.9493 8.91594 93.745Z" fill="#E1EDFE"/>
        <path d="M98 32H22C19.7909 32 18 33.7909 18 36V78C18 80.2091 19.7909 82 22 82H98C100.209 82 102 80.2091 102 78V36C102 33.7909 100.209 32 98 32Z" fill="white"/>
        <path d="M45 44H27C26.4477 44 26 44.4477 26 45V55C26 55.5523 26.4477 56 27 56H45C45.5523 56 46 55.5523 46 55V45C46 44.4477 45.5523 44 45 44Z" fill="#E5E9F2"/>
        <path d="M69 44H51C50.4477 44 50 44.4477 50 45V55C50 55.5523 50.4477 56 51 56H69C69.5523 56 70 55.5523 70 55V45C70 44.4477 69.5523 44 69 44Z" fill="#E5E9F2"/>
        <path d="M93 44H75C74.4477 44 74 44.4477 74 45V55C74 55.5523 74.4477 56 75 56H93C93.5523 56 94 55.5523 94 55V45C94 44.4477 93.5523 44 93 44Z" fill="#E5E9F2"/>
        <path d="M57 60H39C38.4477 60 38 60.4477 38 61V71C38 71.5523 38.4477 72 39 72H57C57.5523 72 58 71.5523 58 71V61C58 60.4477 57.5523 60 57 60Z" fill="#E5E9F2"/>
        <path d="M81 60H63C62.4477 60 62 60.4477 62 61V71C62 71.5523 62.4477 72 63 72H81C81.5523 72 82 71.5523 82 71V61C82 60.4477 81.5523 60 81 60Z" fill="#E5E9F2"/>
        <path d="M98 31H22C20.6744 31.0016 19.4036 31.5289 18.4662 32.4662C17.5289 33.4036 17.0016 34.6744 17 36V78C17.0016 79.3256 17.5289 80.5964 18.4662 81.5338C19.4036 82.4711 20.6744 82.9984 22 83H52V91H45C44.4696 91 43.9609 91.2107 43.5858 91.5858C43.2107 91.9609 43 92.4696 43 93V97C43 97.5304 43.2107 98.0391 43.5858 98.4142C43.9609 98.7893 44.4696 99 45 99H73C73.5304 99 74.0391 98.7893 74.4142 98.4142C74.7893 98.0391 75 97.5304 75 97V93C75 92.4696 74.7893 91.9609 74.4142 91.5858C74.0391 91.2107 73.5304 91 73 91H66V83H98C99.3256 82.9984 100.596 82.4711 101.534 81.5338C102.471 80.5964 102.998 79.3256 103 78V36C102.998 34.6744 102.471 33.4036 101.534 32.4662C100.596 31.5289 99.3256 31.0016 98 31ZM73 93V97H45V93H73ZM64 91H54V83H64V91ZM101 78C101 78.7957 100.684 79.5587 100.121 80.1213C99.5587 80.6839 98.7956 81 98 81H22C21.2044 81 20.4413 80.6839 19.8787 80.1213C19.3161 79.5587 19 78.7957 19 78V36C19 35.2044 19.3161 34.4413 19.8787 33.8787C20.4413 33.3161 21.2044 33 22 33H98C98.7956 33 99.5587 33.3161 100.121 33.8787C100.684 34.4413 101 35.2044 101 36V78Z" fill="#1676FB"/>
        <path d="M61.444 40H40.111L33 47.143V18.7C32.9818 17.738 33.346 16.8082 34.0127 16.1145C34.6794 15.4208 35.5941 15.02 36.556 15H61.444C62.406 15.02 63.3207 15.4208 63.9874 16.1145C64.6541 16.8082 65.0183 17.738 65 18.7V36.3C65.0183 37.262 64.6541 38.1918 63.9874 38.8855C63.3207 39.5792 62.406 39.98 61.444 40Z" fill="#1676FB"/>
        <path d="M61.444 40H40.111L33 47.143V18.7C32.9818 17.738 33.346 16.8082 34.0127 16.1145C34.6794 15.4208 35.5941 15.02 36.556 15H61.444C62.406 15.02 63.3207 15.4208 63.9874 16.1145C64.6541 16.8082 65.0183 17.738 65 18.7V36.3C65.0183 37.262 64.6541 38.1918 63.9874 38.8855C63.3207 39.5792 62.406 39.98 61.444 40V40Z" stroke="#1676FB" stroke-width="2" stroke-miterlimit="10"/>
        <path d="M40 22H57" stroke="white" stroke-width="2" stroke-linecap="round" stroke-linejoin="round"/>
        <path d="M40 27H57" stroke="white" stroke-width="2" stroke-linecap="round" stroke-linejoin="round"/>
        <path d="M40 32H50" stroke="white" stroke-width="2" stroke-linecap="round" stroke-linejoin="round"/>
        <path d="M30.5 87.5V91.5" stroke="#1676FB" stroke-linecap="round" stroke-linejoin="round"/>
        <path d="M28.5 89.5H32.5" stroke="#1676FB" stroke-linecap="round" stroke-linejoin="round"/>
        <path d="M79.5 22.5V26.5" stroke="#1676FB" stroke-linecap="round" stroke-linejoin="round"/>
        <path d="M77.5 24.5H81.5" stroke="#1676FB" stroke-linecap="round" stroke-linejoin="round"/>
        <path d="M90.5 100.5C92.1569 100.5 93.5 99.1569 93.5 97.5C93.5 95.8431 92.1569 94.5 90.5 94.5C88.8431 94.5 87.5 95.8431 87.5 97.5C87.5 99.1569 88.8431 100.5 90.5 100.5Z" stroke="#1676FB" stroke-miterlimit="10"/>
        <path d="M24 25.5C25.3807 25.5 26.5 24.3807 26.5 23C26.5 21.6193 25.3807 20.5 24 20.5C22.6193 20.5 21.5 21.6193 21.5 23C21.5 24.3807 22.6193 25.5 24 25.5Z" stroke="#1676FB" stroke-miterlimit="10"/>
    </g>
    <defs>
        <clipPath id="clip0_127_1936">
            <rect width="120" height="118" fill="white"/>
        </clipPath>
    </defs>
</svg>